<svg width="32" height="32" viewBox="0 0 32 32" fill="none" xmlns="http://www.w3.org/2000/svg">
<path d="M16 1.92004C8.22404 1.92004 1.92004 8.22404 1.92004 16C1.92004 23.776 8.22404 30.08 16 30.08C23.776 30.08 30.08 23.776 30.08 16C30.08 8.22404 23.776 1.92004 16 1.92004ZM13.44 7.04004H24.32L23.6675 7.60379C23.6675 7.62939 23.68 7.65444 23.68 7.68004V11.0588C24.064 11.2764 24.32 11.6864 24.32 12.16V16C24.32 16.704 23.744 17.28 23.04 17.28C22.336 17.28 21.76 16.704 21.76 16V12.16C21.76 11.6864 22.016 11.2764 22.4 11.0588V8.68504L20.1025 10.6563C20.3265 11.1043 20.48 11.6482 20.48 12.3138C20.48 14.0546 19.5077 14.9183 18.5413 15.6863C18.2405 15.9935 17.8875 16.3266 17.8875 16.845C17.8875 17.357 18.2403 17.6452 18.4963 17.85L19.3213 18.5088C20.3389 19.3792 21.2613 20.1796 21.2613 21.7988C21.2613 24.0068 19.1555 26.24 15.1875 26.24C11.8403 26.24 10.2275 24.6208 10.2275 22.88C10.2275 22.0352 10.6431 20.8381 12.0063 20.0125C13.4335 19.1229 15.3731 19.0017 16.4163 18.9313C16.0899 18.5089 15.7188 18.0673 15.7188 17.3313C15.7188 16.9409 15.8398 16.7043 15.955 16.4163C15.699 16.4419 15.4429 16.4675 15.2125 16.4675C12.7805 16.4675 11.3916 14.624 11.3788 12.8H7.04004L13.44 7.04004ZM15.5325 9.11379C14.9373 9.11379 14.2912 9.41504 13.92 9.89504C13.5296 10.3814 13.4075 11.0145 13.4075 11.6225C13.4075 13.1969 14.3174 15.8075 16.295 15.8075C16.8774 15.8075 17.4976 15.5264 17.8688 15.1488C18.3936 14.6048 18.445 13.856 18.445 13.44C18.445 11.744 17.4525 9.11379 15.5325 9.11379ZM16.665 19.59C16.4602 19.59 15.2127 19.6347 14.2463 19.9675C13.7343 20.1595 12.2625 20.7171 12.2625 22.3875C12.2625 24.0579 13.8496 25.255 16.32 25.255C18.5408 25.255 19.7125 24.1666 19.7125 22.7138C19.7125 21.517 18.9574 20.8835 17.2038 19.6163C17.0182 19.5907 16.9018 19.59 16.665 19.59Z" fill="#FF4900"/>
</svg>
