<svg width="32" height="32" viewBox="0 0 32 32" fill="none" xmlns="http://www.w3.org/2000/svg">
<mask id="mask0_24_587" style="mask-type:alpha" maskUnits="userSpaceOnUse" x="0" y="0" width="32" height="32">
<path d="M0 0V32H32V0H0ZM18.7286 23.8857C18.2571 24.1 16.3571 24.3143 15.1571 22.8714C14.5 22.1143 13.35 20.4929 12.1429 18.3286C11.5071 18.3286 11.0929 18.3286 10.6143 18.2857V21.6C10.6143 23.2786 11.0429 23.1143 12.4571 23.3071V23.8857C11.9643 23.8643 10.8071 23.8286 9.91429 23.8286C8.97857 23.8286 8.05 23.8714 7.51429 23.8857V23.3071C8.62143 23.1 9.08571 23.2143 9.08571 21.6V13.7857C9.08571 12.1714 8.62857 12.2857 7.51429 12.0786V11.5C9.35714 11.5714 11.3071 11.4571 12.5786 11.4571C14.8429 11.4571 16.5714 12.4857 16.5714 14.7143C16.5714 16.2214 15.3786 17.7286 13.7714 18.1071C14.7429 19.8357 15.9143 21.3643 16.7857 22.3143C17.3 22.8714 18.0143 23.3643 18.7286 23.3643V23.8857ZM20.3643 14.2429C18.7 14.2429 18.0643 13.1214 18.0643 11.9429V9.64286C18.0643 8.77143 18.6929 7.47143 20.4929 7.47143C22.2929 7.47143 22.6643 8.75 22.6643 8.75L21.9 9.26429C21.9 9.26429 21.5071 8.37143 20.4929 8.37143C19.9286 8.37143 19.0857 8.89286 19.0857 9.77857V11.6929C19.0857 12.65 19.5571 13.3571 20.3643 13.3571C21.3714 13.3571 21.9 12.5786 21.9 11.4429H20.6214V10.6786H22.7929C22.7929 12.1429 23.1286 14.2429 20.3643 14.2429ZM12.0429 17.4357C11.3714 17.4357 11.0714 17.4143 10.6143 17.3786V12.4C11.0714 12.3571 11.6857 12.3571 12.2214 12.3571C13.8857 12.3571 14.8786 13.2286 14.8786 14.8214C14.8786 16.3857 13.8071 17.4357 12.0429 17.4357Z" fill="#FF4900"/>
</mask>
<g mask="url(#mask0_24_587)">
<circle cx="15.1111" cy="16.0001" r="14.2222" fill="#FF4900"/>
</g>
</svg>
